<svg height="512pt" viewBox="-100 0 512 512" width="512pt" xmlns="http://www.w3.org/2000/svg"><path d="m296.570312 0h-200.238281c-53.117187 0-96.332031 43.214844-96.332031 96.332031 0 8.414063 6.824219 15.238281 15.238281 15.238281h88.933594v51.761719c-43.671875 19.769531-74.128906 63.761719-74.128906 114.734375v218.695313c0 8.414062 6.824219 15.238281 15.238281 15.238281h221.246094c8.414062 0 15.234375-6.824219 15.234375-15.238281v-218.695313c0-50.972656-30.457031-94.964844-74.128907-114.734375v-51.761719h22.167969c3.328125 27.238282 15.558594 52.433594 35.269531 72.140626 2.976563 2.976562 6.875 4.464843 10.773438 4.464843s7.800781-1.488281 10.777344-4.464843c5.949218-5.949219 5.949218-15.597657 0-21.546876-13.9375-13.9375-22.886719-31.519531-26.011719-50.59375h35.960937c8.414063 0 15.238282-6.824218 15.238282-15.238281v-81.09375c0-8.414062-6.824219-15.238281-15.238282-15.238281zm-200.238281 30.476562h132.542969v50.617188h-196.617188c6.890626-28.988281 33.003907-50.617188 64.074219-50.617188zm154.957031 354.535157h-190.769531v-77.972657h190.769531zm-190.769531 96.511719v-66.035157h190.769531v66.035157zm190.75-204.960938h-190.730469c.804688-51.902344 43.273438-93.882812 95.363282-93.882812 52.09375 0 94.558594 41.980468 95.367187 93.882812zm-74.113281-124.355469h-42.507812v-40.636719h42.507812zm104.175781-71.113281h-21.980469v-50.617188h21.980469zm0 0"/></svg>